<?xml version="1.0"?>
<svg xmlns="http://www.w3.org/2000/svg" xmlns:xlink="http://www.w3.org/1999/xlink" xmlns:svgjs="http://svgjs.com/svgjs" version="1.1" width="512" height="512" x="0" y="0" viewBox="0 0 24 24" style="enable-background:new 0 0 512 512" xml:space="preserve"><g><g xmlns="http://www.w3.org/2000/svg"><g><path d="m19.499 23.999c-.304 0-.605-.093-.864-.275l-6.347-4.48c-.172-.121-.404-.121-.576 0l-6.347 4.48c-.46.325-1.055.365-1.555.106-.499-.259-.81-.769-.81-1.332v-19.998c0-1.379 1.122-2.5 2.5-2.5h13c1.378 0 2.5 1.121 2.5 2.5v19.998c0 .562-.311 1.073-.81 1.332-.218.113-.455.169-.691.169zm-7.499-5.847c.303 0 .606.092.865.274l6.347 4.48c.155.109.349.121.518.035.169-.087.27-.253.27-.443v-19.998c0-.827-.673-1.5-1.5-1.5h-13c-.827 0-1.5.673-1.5 1.5v19.998c0 .19.101.356.271.444.169.087.363.075.518-.035l6.347-4.48c.258-.183.561-.275.864-.275z" fill="#ffffff" data-original="#000000" style=""/></g></g><g xmlns="http://www.w3.org/2000/svg"><g><path d="m12 16c-.138 0-.27-.057-.364-.157l-4.69-4.985c-1.255-1.334-1.255-3.506 0-4.84 1.235-1.312 3.403-1.312 4.637 0l.417.444.417-.444c.618-.657 1.442-1.018 2.319-1.018.877 0 1.701.361 2.318 1.018 1.255 1.334 1.255 3.506 0 4.84l-4.69 4.985c-.094.1-.226.157-.364.157zm-2.736-10c-.599 0-1.164.25-1.59.703-.9.956-.9 2.513 0 3.469l4.326 4.599 4.326-4.599c.9-.956.9-2.513 0-3.469-.426-.453-.991-.703-1.59-.703-.599 0-1.164.249-1.59.703l-.782.831c-.189.201-.539.201-.729 0l-.782-.831c-.426-.454-.991-.703-1.589-.703z" fill="#ffffff" data-original="#000000" style=""/></g></g></g></svg>
